<svg width="249.44900000000004" height="283.465" xmlns="http://www.w3.org/2000/svg" xml:space="preserve" enable-background="new 0 0 249.449 283.465" version="1.1">

 <g>
  <title>Layer 1</title>
  <path fill="#ffffff" id="svg_1" d="m115.262,224.021c-18.718,0 -30.627,-11.355 -30.627,-25.759c0,-61.635 162.083,-73.975 162.083,-139.431c0,-39.931 -46.255,-57.142 -105.3,-57.142c-35.916,0 -76.528,6.648 -114.243,18.543l0,78.086c55.581,-40.482 117.336,-57.812 157.113,-57.812c25.012,0 41.984,6.979 41.984,19.483c0,51.517 -223.541,43.354 -223.542,154.672c0,42.668 29.339,67.114 70.617,67.114c62.436,0 109.662,-60.676 144.992,-134.637l7.158,2.571c-18.607,45.198 -57.113,94.757 -64.613,126.614l80.382,0l0,-164.817l-18.565,0c-26.947,58.556 -66.436,112.515 -107.439,112.515z"/>
  <g id="svg_2"/>
  <g id="svg_3"/>
  <g id="svg_4"/>
  <g id="svg_5"/>
  <g id="svg_6"/>
  <g id="svg_7"/>
 </g>
</svg>