<svg width="72" height="72" xmlns="http://www.w3.org/2000/svg" fill="none">

 <g>
  <title>Layer 1</title>
  <path d="m36,61.9995c14.3593,0 25.9999,-11.6403 25.9999,-25.9993c0,-14.359 -11.6406,-25.9992 -25.9999,-25.9992c-14.3594,0 -26,11.6402 -26,25.9992c0,14.359 11.6406,25.9993 26,25.9993z" fill="#ffffff" id="svg_1"/>
  <path opacity="0.4" d="m57.755,50.5453c-4.7317,6.8285 -12.6411,11.3032 -21.5994,11.3032c-13.821,0 -25.1452,-10.6509 -26.1556,-24.1641c0.8251,-12.3669 10.3021,-22.3926 22.4512,-24.1115l3.7193,-0.2663c2.7587,-0.1532 6.1262,-0.6183 9.7192,-1.8662c3.0145,1.2011 5.753,2.9436 8.0945,5.1066c-1.4744,5.9711 -5.3405,9.5399 -10.0348,10.834c0,0 6.105,1.7492 10.7836,-1.6201c0,0 0.1322,8.8494 -9.4866,10.15c0,0 1.5839,2.5621 5.5394,1.6931c0,0 -1.145,4.5607 -7.3006,5.2082c-5.9805,0.6294 -5.845,6.0496 -5.8327,6.5405c0.0004,0.0142 0.0006,0.0242 0.0006,0.03c0,0.2046 0.3967,6.1388 8.6989,6.1388c4.309,0.0204 8.4318,-2.083 11.403,-4.9762z" fill="black" id="svg_2"/>
  <path stroke-width="0" fill-rule="evenodd" clip-rule="evenodd" d="m54.7945,3.30826c0.3807,0.94356 1.8671,4.93054 1.2541,8.33524c-1.2541,6.9464 -7.071,10.785 -12.2105,12.2073c0,0 6.0744,1.7472 10.7296,-1.6182c0,0 0.1316,8.8391 -9.4392,10.1383c0,0 1.576,2.559 5.5118,1.6911c0,0 -1.1393,4.5553 -7.2642,5.2021c-6.1221,0.6468 -5.8029,6.3585 -5.8029,6.5629c0,0.2043 0.3946,6.1317 8.6554,6.1317c7.6561,0.0364 14.7216,-6.6917 15.7266,-12.5966l0.0447,-0.28c-1.5676,12.9074 -12.5745,22.9169 -25.902,22.9169c-14.4024,0 -26.0979,-11.6951 -26.0979,-26.1032c0,-13.1481 9.7416,-24.0396 22.3973,-25.8371l3.7006,-0.266c4.9716,-0.2772 11.9307,-1.5763 18.6098,-6.69163l0.0868,0.20719z" fill="#ffffff" id="svg_3"/>
  <path d="m54.0408,54.8571c-4.677,4.4265 -10.996,7.142 -17.9505,7.142c-14.4093,0 -26.0903,-11.6573 -26.0903,-26.0372c0,-7.2293 2.9524,-13.7706 7.7195,-18.4883l0.6237,-0.4601c0,0 5.7714,-6.9206 23.0697,-4.2989c0,0 0.3317,9.0974 -9.0272,15.8192c0,0 1.3828,2.2013 6.6609,2.2362c0,0 -4.2776,4.9867 -10.3494,4.6215c0,0 0.9097,3.259 4.1507,3.2934c0,0 -6.0971,2.9896 -5.0188,9.3729c0.7071,4.1821 3.5808,10.8151 16.2165,11.0251c4.82,0.0801 8.394,-2.951 9.6167,-3.988c0.167,-0.1416 0.2901,-0.246 0.3666,-0.3002l0.0119,0.0624z" fill="#ffffff" id="svg_4"/>
  <path d="m10,37.7782c0.9532,13.4134 11.96,24.0235 25.4684,24.2209l0.001,-0.0578c-10.2016,-0.1712 -15.8475,-8.3959 -15.9762,-15.3814c-0.1709,-8.9679 5.1691,-12.1124 5.1691,-12.1124c0,0 -3.3828,-0.1208 -3.291,-5.6719c0.0918,-5.554 6.1962,-9.6199 6.1962,-9.6199c-9.2748,-1.2943 -17.3698,6.8265 -17.5279,16.3907c-0.0154,0.9319 -0.0285,1.664 -0.0396,2.2318z" fill="#ffffff" id="svg_5"/>
 </g>
</svg>