<svg width="512" height="512" xmlns="http://www.w3.org/2000/svg" fill-rule="evenodd" clip-rule="evenodd" stroke-linejoin="round" stroke-miterlimit="2">
 <g>
  <title>Layer 1</title>
  <path d="m16.007,83.654c25.893,-15.599 51.733,-31.32 77.736,-46.743c0.055,119.407 -0.136,238.814 0.096,358.221c-11.781,7.323 -23.767,14.304 -35.575,21.545c-14.1,8.413 -28.09,17.017 -42.216,25.362c-0.096,-119.462 -0.014,-238.923 -0.041,-358.385z" fill="#ffffff" id="svg_2"/>
  <path d="m93.743,36.911c113.271,-0.19 226.556,-0.027 339.84,-0.081c13.99,-0.846 27.122,11.099 27.176,25.185c0.26,18.53 0.028,37.075 0.11,55.62c-0.028,92.476 0.054,184.939 -0.042,277.416c-122.325,0.136 -244.663,-0.028 -366.988,0.081c-0.232,-119.407 -0.041,-238.814 -0.096,-358.22m80.819,80c-0.096,66.255 -0.014,132.51 -0.041,198.766l42.952,0c0.013,-43.88 0,-87.759 0,-131.638c12.081,43.743 23.112,87.8 34.852,131.638c15.559,0.027 31.13,-0.055 46.689,0.04c11.208,-41.97 21.967,-84.077 33.284,-126.033c0.137,41.997 0,83.995 0.055,125.979c15.79,0.027 31.58,0.014 47.37,0.014c0.082,-66.201 -0.11,-132.402 0.095,-198.603c-20.29,-0.313 -40.593,-0.054 -60.883,-0.136c-13.799,52.81 -27.748,105.58 -41.765,158.323c-13.513,-52.715 -26.494,-105.567 -39.844,-158.323c-20.93,-0.027 -41.847,0.027 -62.764,-0.027z" fill="#ffffff" id="svg_3"/>
  <path d="m174.562,116.912c20.917,0.054 41.834,0 62.764,0.027c13.35,52.756 26.33,105.608 39.844,158.323c14.017,-52.743 27.966,-105.513 41.765,-158.323c20.29,0.082 40.594,-0.177 60.883,0.136c-0.204,66.201 -0.013,132.402 -0.095,198.603c-15.79,0 -31.58,0.013 -47.37,-0.014c-0.055,-41.984 0.082,-83.982 -0.055,-125.98c-11.317,41.957 -22.076,84.064 -33.284,126.035c-15.558,-0.096 -31.13,-0.014 -46.689,-0.041c-11.74,-43.839 -22.771,-87.895 -34.852,-131.638c0,43.879 0.013,87.758 0,131.638l-42.953,0c0.027,-66.256 -0.055,-132.511 0.04,-198.766l0.002,0z" fill="none" id="svg_4"/>
  <path d="m460.868,117.634c11.7,-0.013 23.399,-0.013 35.112,0c-0.068,119.189 0.15,238.391 -0.11,357.58l-410.798,0c-4.881,-0.682 -9.94,-1.432 -14.208,-4.077c-7.622,-4.431 -12.654,-13.035 -12.586,-21.885c-0.054,-10.854 0.055,-21.721 -0.013,-32.575c11.808,-7.24 23.794,-14.222 35.575,-21.545c122.325,-0.109 244.663,0.055 366.988,-0.081c0.096,-92.477 0.014,-184.94 0.041,-277.417l-0.001,0z" fill="#ffffff" id="svg_5"/>
 </g>

</svg>