<svg width="1181.1" height="1181.1" xmlns="http://www.w3.org/2000/svg" stroke-miterlimit="2" stroke-linejoin="round" fill-rule="evenodd" clip-rule="evenodd">

 <g>
  <title>Layer 1</title>
  <path id="svg_1" fill="none" d="m0.00001,0.00001l1181.1,0l0,1181.1l-1181.1,0l0,-1181.1z"/>
  <path id="svg_9" fill="#fff" d="m534.232,1030.998c26.825,-63.144 41.681,-132.598 41.681,-205.53c0,-124.321 -43.159,-238.522 -115.284,-328.53a529.716,529.716 0 0 0 -28.17,-32.373c-60.709,-77.465 -95.269,-173.977 -105.703,-213.105a575.418,575.418 0 0 1 52.918,-17.328a576.665,576.665 0 0 1 55.022,-12.256c32.27,-5.562 65.397,-8.624 99.255,-8.624l0.012,0c8.111,0 16.183,0.165 24.213,0.494l0.012,0c8.03,0.33 16.02,0.825 23.962,1.477l0.012,0a583.707,583.707 0 0 1 23.688,2.435l0.012,0a580.01,580.01 0 0 1 23.394,3.376l0.012,0a577.165,577.165 0 0 1 23.084,4.297l0.011,0a576.67,576.67 0 0 1 22.754,5.2l0.012,0a575.398,575.398 0 0 1 22.406,6.079l0.012,0a574.537,574.537 0 0 1 22.034,6.946c174.856,58.954 312.437,198.902 368.197,375.218c-85.21,-175.68 -265.404,-296.093 -473.766,-296.093c-48.517,0 -95.405,6.743 -139.954,19.122c0.866,1.911 1.708,3.836 2.594,5.737c1.895,4.067 3.808,8.12 5.792,12.134c2.078,4.203 4.235,8.355 6.41,12.5c2.132,4.068 4.268,8.13 6.493,12.14c2.214,3.99 4.514,7.921 6.818,11.853c2.322,3.965 4.631,7.936 7.043,11.841c2.463,3.986 5.026,7.9 7.581,11.822c2.445,3.757 4.87,7.528 7.397,11.225c0.643,0.94 1.295,1.87 1.952,2.798a644.315,644.315 0 0 0 -3.819,-5.282a524.82,524.82 0 0 1 5.72,7.995c0.11,0.16 0.218,0.32 0.328,0.476l0.005,0c59.722,85.34 94.764,189.221 94.764,301.288c0,40.624 -4.608,80.17 -13.33,118.146a521.79,521.79 0 0 1 -10.077,37.433a521.932,521.932 0 0 1 -27.929,71.294a524.875,524.875 0 0 1 -17.633,33.636a527.8,527.8 0 0 1 -19.935,32.16l0,-0.001z"/>
  <path id="svg_10" fill="#ebebeb" d="m528.04,436.565c-0.133,-0.193 -0.265,-0.387 -0.399,-0.58l0.006,0c0.247,0.351 0.495,0.701 0.744,1.05l-0.019,0.005l-0.332,-0.475z"/>
 </g>
</svg>